HIERARCHY
ROOT Hips
{
	OFFSET -49.260769 -43.699543 87.056984
	CHANNELS 6 Xposition Yposition Zposition Zrotation Yrotation Xrotation
	JOINT Spine
	{
		OFFSET 0.000000 2.080109 8.814247
		CHANNELS 6 Xposition Yposition Zposition Zrotation Yrotation Xrotation
		JOINT Spine1
		{
			OFFSET 0.000000 0.000000 8.844139
			CHANNELS 6 Xposition Yposition Zposition Zrotation Yrotation Xrotation
			JOINT Spine2
			{
				OFFSET 0.000000 0.000000 11.682266
				CHANNELS 6 Xposition Yposition Zposition Zrotation Yrotation Xrotation
				JOINT Spine3
				{
					OFFSET 0.000000 0.000004 11.746696
					CHANNELS 6 Xposition Yposition Zposition Zrotation Yrotation Xrotation
					JOINT Neck
					{
						OFFSET 0.000000 0.000000 17.658264
						CHANNELS 6 Xposition Yposition Zposition Zrotation Yrotation Xrotation
						JOINT Neck1
						{
							OFFSET 0.000000 0.000000 5.101517
							CHANNELS 6 Xposition Yposition Zposition Zrotation Yrotation Xrotation
							JOINT Head
							{
								OFFSET 0.000000 0.000000 5.101517
								CHANNELS 6 Xposition Yposition Zposition Zrotation Yrotation Xrotation
								JOINT HeadEnd
								{
									OFFSET 0.000000 0.000000 11.655090
									CHANNELS 6 Xposition Yposition Zposition Zrotation Yrotation Xrotation
									End Site
									{
										OFFSET 0.000000 0.000000 0.100006
									}
								}
							}
						}
					}
					JOINT RightShoulder
					{
						OFFSET -2.625389 0.000000 11.175217
						CHANNELS 6 Xposition Yposition Zposition Zrotation Yrotation Xrotation
						JOINT RightArm
						{
							OFFSET 0.000000 0.000000 10.434723
							CHANNELS 6 Xposition Yposition Zposition Zrotation Yrotation Xrotation
							JOINT RightForeArm
							{
								OFFSET 0.000000 0.000004 29.628418
								CHANNELS 6 Xposition Yposition Zposition Zrotation Yrotation Xrotation
								JOINT RightHand
								{
									OFFSET 0.000000 0.000000 22.857605
									CHANNELS 6 Xposition Yposition Zposition Zrotation Yrotation Xrotation
									JOINT RightHandThumb1
									{
										OFFSET -2.867321 -2.944290 3.959564
										CHANNELS 6 Xposition Yposition Zposition Zrotation Yrotation Xrotation
										JOINT RightHandThumb2
										{
											OFFSET 0.000000 0.000000 3.350403
											CHANNELS 6 Xposition Yposition Zposition Zrotation Yrotation Xrotation
											JOINT RightHandThumb3
											{
												OFFSET 0.000000 0.000000 3.756516
												CHANNELS 6 Xposition Yposition Zposition Zrotation Yrotation Xrotation
												JOINT RightHandThumb4
												{
													OFFSET 0.000000 0.000000 3.147339
													CHANNELS 6 Xposition Yposition Zposition Zrotation Yrotation Xrotation
													End Site
													{
														OFFSET 0.000000 0.000000 0.100006
													}
												}
											}
										}
									}
									JOINT RightHandIndex1
									{
										OFFSET -0.086754 -2.345280 10.030899
										CHANNELS 6 Xposition Yposition Zposition Zrotation Yrotation Xrotation
										JOINT RightHandIndex2
										{
											OFFSET 0.000000 0.000000 4.061096
											CHANNELS 6 Xposition Yposition Zposition Zrotation Yrotation Xrotation
											JOINT RightHandIndex3
											{
												OFFSET 0.000000 0.000000 3.248871
												CHANNELS 6 Xposition Yposition Zposition Zrotation Yrotation Xrotation
												JOINT RightHandIndex4
												{
													OFFSET 0.000000 0.000000 2.639709
													CHANNELS 6 Xposition Yposition Zposition Zrotation Yrotation Xrotation
													End Site
													{
														OFFSET 0.000000 0.000000 0.100006
													}
												}
											}
										}
									}
									JOINT RightHandMiddle1
									{
										OFFSET 0.104103 -0.006767 9.502945
										CHANNELS 6 Xposition Yposition Zposition Zrotation Yrotation Xrotation
										JOINT RightHandMiddle2
										{
											OFFSET 0.000000 0.000000 4.568726
											CHANNELS 6 Xposition Yposition Zposition Zrotation Yrotation Xrotation
											JOINT RightHandMiddle3
											{
												OFFSET 0.000000 0.000000 3.654984
												CHANNELS 6 Xposition Yposition Zposition Zrotation Yrotation Xrotation
												JOINT RightHandMiddle4
												{
													OFFSET 0.000000 0.000000 2.741241
													CHANNELS 6 Xposition Yposition Zposition Zrotation Yrotation Xrotation
													End Site
													{
														OFFSET 0.000000 0.000000 0.100006
													}
												}
											}
										}
									}
									JOINT RightHandRing1
									{
										OFFSET 0.086754 2.267441 8.921707
										CHANNELS 6 Xposition Yposition Zposition Zrotation Yrotation Xrotation
										JOINT RightHandRing2
										{
											OFFSET 0.000000 0.000000 4.061096
											CHANNELS 6 Xposition Yposition Zposition Zrotation Yrotation Xrotation
											JOINT RightHandRing3
											{
												OFFSET 0.000000 0.000000 3.654984
												CHANNELS 6 Xposition Yposition Zposition Zrotation Yrotation Xrotation
												JOINT RightHandRing4
												{
													OFFSET 0.000000 0.000000 2.741241
													CHANNELS 6 Xposition Yposition Zposition Zrotation Yrotation Xrotation
													End Site
													{
														OFFSET 0.000000 0.000000 0.100006
													}
												}
											}
										}
									}
									JOINT RightHandPinky1
									{
										OFFSET -0.173504 4.467197 7.976990
										CHANNELS 6 Xposition Yposition Zposition Zrotation Yrotation Xrotation
										JOINT RightHandPinky2
										{
											OFFSET 0.000000 0.000000 3.350403
											CHANNELS 6 Xposition Yposition Zposition Zrotation Yrotation Xrotation
											JOINT RightHandPinky3
											{
												OFFSET 0.000000 0.000000 2.842758
												CHANNELS 6 Xposition Yposition Zposition Zrotation Yrotation Xrotation
												JOINT RightHandPinky4
												{
													OFFSET 0.000000 0.000000 2.639709
													CHANNELS 6 Xposition Yposition Zposition Zrotation Yrotation Xrotation
													End Site
													{
														OFFSET 0.000000 0.000000 0.100006
													}
												}
											}
										}
									}
									JOINT RightForeArmEnd
									{
										OFFSET 0.000000 0.000000 0.000000
										CHANNELS 6 Xposition Yposition Zposition Zrotation Yrotation Xrotation
										End Site
										{
											OFFSET 0.000000 0.000000 0.100006
										}
									}
								}
								JOINT RightArmEnd
								{
									OFFSET 0.000000 0.000000 0.000000
									CHANNELS 6 Xposition Yposition Zposition Zrotation Yrotation Xrotation
									End Site
									{
										OFFSET 0.000000 0.000000 0.100006
									}
								}
							}
						}
					}
					JOINT LeftShoulder
					{
						OFFSET 2.625389 0.000000 11.175217
						CHANNELS 6 Xposition Yposition Zposition Zrotation Yrotation Xrotation
						JOINT LeftArm
						{
							OFFSET 0.000000 0.000000 10.813629
							CHANNELS 6 Xposition Yposition Zposition Zrotation Yrotation Xrotation
							JOINT LeftForeArm
							{
								OFFSET 0.000000 0.000004 28.724777
								CHANNELS 6 Xposition Yposition Zposition Zrotation Yrotation Xrotation
								JOINT LeftHand
								{
									OFFSET 0.644382 0.328873 25.716171
									CHANNELS 6 Xposition Yposition Zposition Zrotation Yrotation Xrotation
									JOINT LeftHandThumb1
									{
										OFFSET 2.867325 -2.944290 3.959564
										CHANNELS 6 Xposition Yposition Zposition Zrotation Yrotation Xrotation
										JOINT LeftHandThumb2
										{
											OFFSET 0.000000 0.000000 3.350403
											CHANNELS 6 Xposition Yposition Zposition Zrotation Yrotation Xrotation
											JOINT LeftHandThumb3
											{
												OFFSET 0.000000 0.000000 3.756516
												CHANNELS 6 Xposition Yposition Zposition Zrotation Yrotation Xrotation
												JOINT LeftHandThumb4
												{
													OFFSET 0.000000 0.000000 3.100006
													CHANNELS 6 Xposition Yposition Zposition Zrotation Yrotation Xrotation
													End Site
													{
														OFFSET 0.000000 0.000000 0.100006
													}
												}
											}
										}
									}
									JOINT LeftHandIndex1
									{
										OFFSET 0.086754 -2.345280 10.030899
										CHANNELS 6 Xposition Yposition Zposition Zrotation Yrotation Xrotation
										JOINT LeftHandIndex2
										{
											OFFSET 0.000000 0.000000 4.061096
											CHANNELS 6 Xposition Yposition Zposition Zrotation Yrotation Xrotation
											JOINT LeftHandIndex3
											{
												OFFSET 0.000000 0.000000 3.248871
												CHANNELS 6 Xposition Yposition Zposition Zrotation Yrotation Xrotation
												JOINT LeftHandIndex4
												{
													OFFSET 0.000000 0.000000 2.639709
													CHANNELS 6 Xposition Yposition Zposition Zrotation Yrotation Xrotation
													End Site
													{
														OFFSET 0.000000 0.000000 0.100006
													}
												}
											}
										}
									}
									JOINT LeftHandMiddle1
									{
										OFFSET -0.104103 -0.006767 9.502945
										CHANNELS 6 Xposition Yposition Zposition Zrotation Yrotation Xrotation
										JOINT LeftHandMiddle2
										{
											OFFSET 0.000000 0.000000 4.568726
											CHANNELS 6 Xposition Yposition Zposition Zrotation Yrotation Xrotation
											JOINT LeftHandMiddle3
											{
												OFFSET 0.000000 0.000000 3.654984
												CHANNELS 6 Xposition Yposition Zposition Zrotation Yrotation Xrotation
												JOINT LeftHandMiddle4
												{
													OFFSET 0.000000 0.000000 2.741241
													CHANNELS 6 Xposition Yposition Zposition Zrotation Yrotation Xrotation
													End Site
													{
														OFFSET 0.000000 0.000000 0.100006
													}
												}
											}
										}
									}
									JOINT LeftHandRing1
									{
										OFFSET -0.086754 2.267441 8.921707
										CHANNELS 6 Xposition Yposition Zposition Zrotation Yrotation Xrotation
										JOINT LeftHandRing2
										{
											OFFSET 0.000000 0.000000 4.061096
											CHANNELS 6 Xposition Yposition Zposition Zrotation Yrotation Xrotation
											JOINT LeftHandRing3
											{
												OFFSET 0.000000 0.000000 3.654984
												CHANNELS 6 Xposition Yposition Zposition Zrotation Yrotation Xrotation
												JOINT LeftHandRing4
												{
													OFFSET 0.000000 0.000000 2.741241
													CHANNELS 6 Xposition Yposition Zposition Zrotation Yrotation Xrotation
													End Site
													{
														OFFSET 0.000000 0.000000 0.100006
													}
												}
											}
										}
									}
									JOINT LeftHandPinky1
									{
										OFFSET 0.173504 4.467197 7.976990
										CHANNELS 6 Xposition Yposition Zposition Zrotation Yrotation Xrotation
										JOINT LeftHandPinky2
										{
											OFFSET 0.000000 0.000000 3.350403
											CHANNELS 6 Xposition Yposition Zposition Zrotation Yrotation Xrotation
											JOINT LeftHandPinky3
											{
												OFFSET 0.000000 0.000000 2.842758
												CHANNELS 6 Xposition Yposition Zposition Zrotation Yrotation Xrotation
												JOINT LeftHandPinky4
												{
													OFFSET 0.000000 0.000000 2.639709
													CHANNELS 6 Xposition Yposition Zposition Zrotation Yrotation Xrotation
													End Site
													{
														OFFSET 0.000000 0.000000 0.100006
													}
												}
											}
										}
									}
									JOINT LeftForeArmEnd
									{
										OFFSET 0.000000 0.000000 0.000000
										CHANNELS 6 Xposition Yposition Zposition Zrotation Yrotation Xrotation
										End Site
										{
											OFFSET 0.000000 0.000000 0.100006
										}
									}
								}
								JOINT LeftArmEnd
								{
									OFFSET 0.000000 0.000000 0.000000
									CHANNELS 6 Xposition Yposition Zposition Zrotation Yrotation Xrotation
									End Site
									{
										OFFSET 0.000000 0.000000 0.100006
									}
								}
							}
						}
					}
				}
			}
		}
	}
	JOINT RightUpLeg
	{
		OFFSET -11.289944 0.000000 0.000000
		CHANNELS 6 Xposition Yposition Zposition Zrotation Yrotation Xrotation
		JOINT RightLeg
		{
			OFFSET 0.000000 -0.000004 -38.200321
			CHANNELS 6 Xposition Yposition Zposition Zrotation Yrotation Xrotation
			JOINT RightFoot
			{
				OFFSET 0.000000 -0.000004 -39.900856
				CHANNELS 6 Xposition Yposition Zposition Zrotation Yrotation Xrotation
				JOINT RightToeBase
				{
					OFFSET 0.000000 -15.261639 0.000002
					CHANNELS 6 Xposition Yposition Zposition Zrotation Yrotation Xrotation
					JOINT RightToeBaseEnd
					{
						OFFSET 0.000000 -7.370712 0.000000
						CHANNELS 6 Xposition Yposition Zposition Zrotation Yrotation Xrotation
						End Site
						{
							OFFSET 0.000000 0.000000 0.100000
						}
					}
				}
				JOINT RightLegEnd
				{
					OFFSET 0.000000 0.000000 0.000000
					CHANNELS 6 Xposition Yposition Zposition Zrotation Yrotation Xrotation
					End Site
					{
						OFFSET 0.000000 0.000000 0.100000
					}
				}
			}
			JOINT RightUpLegEnd
			{
				OFFSET 0.000000 0.000000 0.000000
				CHANNELS 6 Xposition Yposition Zposition Zrotation Yrotation Xrotation
				End Site
				{
					OFFSET 0.000000 0.000000 0.099998
				}
			}
		}
	}
	JOINT LeftUpLeg
	{
		OFFSET 11.315662 0.000000 0.000000
		CHANNELS 6 Xposition Yposition Zposition Zrotation Yrotation Xrotation
		JOINT LeftLeg
		{
			OFFSET 0.000000 -0.000004 -38.200321
			CHANNELS 6 Xposition Yposition Zposition Zrotation Yrotation Xrotation
			JOINT LeftFoot
			{
				OFFSET 0.000000 -0.000004 -39.900856
				CHANNELS 6 Xposition Yposition Zposition Zrotation Yrotation Xrotation
				JOINT LeftToeBase
				{
					OFFSET 0.000000 -15.261639 0.000002
					CHANNELS 6 Xposition Yposition Zposition Zrotation Yrotation Xrotation
					JOINT LeftToeBaseEnd
					{
						OFFSET 0.000000 -7.539993 0.000000
						CHANNELS 6 Xposition Yposition Zposition Zrotation Yrotation Xrotation
						End Site
						{
							OFFSET 0.000000 0.000000 0.100000
						}
					}
				}
				JOINT LeftLegEnd
				{
					OFFSET 0.000000 0.000000 0.000000
					CHANNELS 6 Xposition Yposition Zposition Zrotation Yrotation Xrotation
					End Site
					{
						OFFSET 0.000000 0.000000 0.100000
					}
				}
			}
			JOINT LeftUpLegEnd
			{
				OFFSET 0.000000 0.000000 0.000000
				CHANNELS 6 Xposition Yposition Zposition Zrotation Yrotation Xrotation
				End Site
				{
					OFFSET 0.000000 0.000000 0.099998
				}
			}
		}
	}
}
MOTION
Frames: 2
Frame Time: 0.016667
-26.716684 -42.660583 86.494469 32.988321 1.233714 -15.940939 0.000001 2.080115 8.814233 0.259785 -0.367599 7.877296 -0.000008 0.000001 8.844135 -0.996005 -3.369626 5.326459 -0.000000 -0.000001 11.682262 2.744283 4.744452 7.176458 -0.000002 -0.000004 11.746699 0.754386 2.620534 1.044271 0.000003 -0.000001 17.658285 -1.732388 -4.410926 13.818546 -0.000005 0.000006 5.101519 -4.192489 3.817356 -7.085276 0.000002 0.000008 5.101534 3.726758 -1.608244 -29.698895 0.000001 -0.000009 11.655075 0.000001 -0.000001 -0.000001 -2.625391 -0.000001 11.175227 4.386359 -87.546592 -0.095928 0.000007 -0.000002 10.434722 24.341746 -25.338031 -14.392725 -0.000002 0.000011 29.628422 57.085990 -3.060301 48.902952 -0.000003 0.000014 22.857601 87.833897 1.821691 -1.032768 -2.867317 -2.944290 3.959553 31.586712 -17.619221 50.974600 -0.000005 -0.000008 3.350418 -13.456753 8.731317 -24.185252 -0.000003 -0.000008 3.756511 -8.945644 6.680278 -16.547344 0.000016 -0.000000 3.147339 0.000000 0.000001 0.000001 -0.086746 -2.345285 10.030913 -12.427349 -18.047561 11.342660 0.000017 0.000003 4.061091 0.262271 -13.741841 1.969678 0.000010 0.000003 3.248865 -0.237231 -13.741841 1.969556 0.000009 -0.000005 2.639710 0.000002 -0.000000 -0.000001 0.104100 -0.006768 9.502934 -7.284968 -19.160224 8.884816 -0.000004 -0.000002 4.568712 0.411165 -13.966522 0.744992 0.000018 0.000006 3.654999 -0.089276 -13.966736 0.745032 0.000010 0.000006 2.741226 0.000004 -0.000000 -0.000000 0.086765 2.267438 8.921675 1.032961 -20.834145 6.005139 0.000001 -0.000004 4.061100 -0.886711 -14.408129 -0.899269 0.000005 0.000009 3.655020 0.115157 -14.410210 -0.899886 0.000007 -0.000002 2.741228 -0.000004 0.000001 -0.000002 -0.173484 4.467197 7.976986 10.180488 -20.629219 0.702791 0.000013 -0.000006 3.350402 -1.661049 -13.902607 -2.756161 0.000004 -0.000001 2.842735 0.338614 -13.902686 -2.756068 0.000012 0.000006 2.639710 0.000002 0.000000 -0.000001 0.000006 0.000001 -0.000011 0.000000 0.000003 -0.000003 -0.000010 0.000015 -0.000002 0.000000 0.000001 0.000005 2.625388 -0.000000 11.175220 -2.051163 86.254477 -0.326508 0.000000 0.000000 10.813646 -25.614487 27.969372 -16.617459 -0.000019 -0.000004 28.724777 -52.256562 12.466682 65.012124 0.644378 0.328852 25.716175 -70.121304 -1.175216 -0.220645 2.867325 -2.944319 3.959553 -31.831359 15.890529 53.646877 0.000019 0.000008 3.350407 9.650568 -7.049991 -17.762050 0.000015 0.000011 3.756558 6.465104 -5.219198 -12.193525 -0.000001 0.000008 3.100006 0.000001 -0.000001 -0.000001 0.086764 -2.345278 10.030889 -6.651176 11.252691 -1.055987 0.000016 -0.000005 4.061096 0.422694 7.943436 -1.123555 -0.000000 0.000004 3.248868 -0.078130 7.943525 -1.123619 0.000011 -0.000001 2.639725 -0.000001 -0.000000 0.000000 -0.104098 -0.006763 9.502911 -1.308770 12.729500 -0.079536 -0.000007 0.000004 4.568732 0.456201 9.024262 -0.477861 -0.000001 0.000002 3.654998 -0.044117 9.024264 -0.477635 -0.000001 0.000003 2.741271 0.000000 -0.000000 0.000001 -0.086754 2.267444 8.921692 7.513667 15.473153 4.110353 0.000000 0.000008 4.061138 -0.931591 11.177204 0.692891 0.000000 0.000005 3.655027 0.068186 11.175905 0.692382 -0.000001 -0.000001 2.741241 0.000001 0.000001 0.000001 0.173515 4.467199 7.976992 16.638419 15.918077 7.934865 0.000003 -0.000003 3.350432 -1.748243 12.062355 2.380565 -0.000002 0.000006 2.842785 0.251346 12.061628 2.380482 0.000004 -0.000003 2.639726 -0.000001 -0.000000 -0.000001 0.000005 0.000001 -0.000001 -0.000000 0.000001 0.000002 -0.000000 -0.000011 0.000004 -0.000000 0.000001 -0.000004 -11.289944 -0.000004 -0.000017 -11.596068 9.549719 13.763995 -0.000002 -0.000009 -38.200325 -1.161513 0.314413 15.124723 -0.000001 -0.000000 -39.900852 -15.739370 -3.573394 17.040965 -0.000008 -15.261635 -0.000003 -0.955590 1.290253 -27.187186 0.000004 -7.370720 0.000000 0.000000 -0.000001 -0.000000 -0.000004 -0.000004 -0.000001 -0.000000 -0.000000 -0.000001 0.000001 0.000002 -0.000008 -0.000001 -0.000000 0.000000 11.315663 -0.000000 -0.000005 1.270272 -1.600360 22.193957 -0.000004 -0.000007 -38.200317 0.625955 -0.129430 11.674773 0.000002 -0.000006 -39.900852 1.098636 -5.929802 8.982606 0.000003 -15.261650 0.000004 0.587155 0.063475 -26.623239 -0.000001 -7.539994 -0.000000 0.000001 0.000000 0.000000 0.000003 -0.000005 -0.000001 0.000003 -0.000001 0.000003 0.000000 -0.000005 0.000000 0.000001 0.000000 -0.000000 
-26.575245 -42.416710 86.482536 33.051524 1.157786 -15.972681 0.000012 2.080112 8.814238 0.261734 -0.313827 7.871568 0.000001 -0.000001 8.844122 -0.987009 -3.324918 5.372627 -0.000005 0.000003 11.682278 2.757847 4.789860 7.216723 -0.000003 0.000005 11.746698 0.755216 2.610143 1.026485 -0.000002 -0.000012 17.658279 -1.838230 -4.589442 13.779006 -0.000002 0.000002 5.101558 -4.213179 3.807141 -7.098510 -0.000002 0.000005 5.101531 3.734273 -1.636658 -29.597822 -0.000003 0.000005 11.655060 -0.000002 0.000000 0.000001 -2.625391 -0.000005 11.175238 4.388915 -87.550458 -0.099233 -0.000015 0.000007 10.434720 24.425817 -25.446730 -14.576582 -0.000021 0.000007 29.628420 58.838665 -5.220452 48.936437 -0.000004 0.000001 22.857609 84.763857 1.853576 -0.936455 -2.867302 -2.944305 3.959562 31.586725 -17.619238 50.974562 0.000016 0.000000 3.350409 -13.456770 8.731328 -24.185266 0.000005 0.000002 3.756504 -8.945637 6.680270 -16.547322 0.000005 0.000003 3.147339 -0.000000 -0.000001 -0.000002 -0.086753 -2.345278 10.030890 -12.367147 -17.800557 11.646388 0.000009 0.000008 4.061095 0.267608 -13.601074 1.948619 0.000012 0.000001 3.248862 -0.232399 -13.601081 1.948622 -0.000004 -0.000002 2.639704 0.000001 -0.000002 0.000004 0.104099 -0.006758 9.502937 -7.245939 -18.979926 9.160789 0.000008 -0.000007 4.568707 0.413032 -13.850636 0.739663 -0.000003 -0.000004 3.654979 -0.087216 -13.850440 0.739733 -0.000003 -0.000001 2.741209 -0.000002 -0.000001 0.000002 0.086778 2.267454 8.921683 1.048742 -20.745933 6.210096 0.000019 0.000011 4.061073 -0.888524 -14.336055 -0.895344 0.000018 -0.000004 3.654990 0.112938 -14.336074 -0.895712 0.000012 -0.000002 2.741257 -0.000001 0.000000 -0.000001 -0.173490 4.467195 7.976988 10.183120 -20.606279 0.800094 -0.000006 -0.000001 3.350399 -1.665219 -13.872064 -2.751461 0.000001 0.000001 2.842776 0.334783 -13.871996 -2.751470 0.000000 0.000006 2.639725 0.000003 0.000000 -0.000000 0.000006 0.000003 0.000001 0.000003 0.000003 0.000002 -0.000000 -0.000003 0.000026 -0.000001 -0.000004 0.000002 2.625393 -0.000005 11.175214 -2.066215 86.274011 -0.327862 -0.000011 0.000001 10.813640 -25.690180 28.034952 -16.782477 -0.000031 0.000000 28.724783 -52.389450 12.470806 64.878416 0.644385 0.328879 25.716164 -70.165803 -1.306659 -0.221762 2.867340 -2.944296 3.959588 -31.831366 15.890527 53.646884 -0.000012 -0.000000 3.350386 9.650565 -7.049986 -17.762074 0.000002 -0.000004 3.756519 6.465099 -5.219205 -12.193500 0.000013 -0.000001 3.100007 0.000001 -0.000000 -0.000001 0.086763 -2.345276 10.030917 -6.672017 11.130729 -0.959656 0.000012 -0.000005 4.061106 0.424381 7.849868 -1.110009 -0.000006 0.000001 3.248883 -0.076254 7.848044 -1.110124 -0.000006 -0.000006 2.639726 -0.000002 0.000001 -0.000000 -0.104089 -0.006768 9.502956 -1.327865 12.623285 0.014528 0.000007 0.000009 4.568742 0.456250 8.945953 -0.473683 0.000004 -0.000004 3.655025 -0.043947 8.944590 -0.473715 0.000007 -0.000002 2.741245 0.000000 0.000004 0.000000 -0.086755 2.267453 8.921740 7.496895 15.390245 4.196328 0.000007 0.000001 4.061110 -0.932081 11.122125 0.689785 -0.000004 0.000005 3.655015 0.067727 11.122169 0.688762 -0.000001 0.000000 2.741256 0.000001 -0.000002 -0.000001 0.173515 4.467199 7.977042 16.623528 15.854515 7.999256 -0.000001 0.000003 3.350424 -1.749586 12.028551 2.374362 -0.000001 0.000004 2.842783 0.249538 12.028672 2.374044 -0.000001 -0.000002 2.639695 -0.000000 -0.000000 -0.000001 0.000009 -0.000001 0.000046 -0.000003 0.000000 0.000000 0.000003 0.000003 0.000014 0.000000 -0.000002 -0.000000 -11.289937 0.000002 -0.000016 -11.574475 9.795750 13.587207 0.000001 -0.000004 -38.200329 -1.162630 0.318065 15.273322 -0.000003 0.000002 -39.900856 -15.719687 -3.710831 17.131446 0.000004 -15.261640 -0.000002 -0.962331 1.291775 -27.188169 0.000004 -7.370720 -0.000001 -0.000000 -0.000001 -0.000000 0.000000 -0.000004 -0.000000 -0.000000 -0.000001 -0.000001 0.000003 0.000003 -0.000008 0.000000 0.000001 0.000001 11.315670 -0.000007 -0.000008 1.227524 -1.297072 22.134024 0.000003 -0.000005 -38.200317 0.603907 -0.124916 11.686049 -0.000002 -0.000011 -39.900852 1.236832 -6.107524 8.979288 -0.000001 -15.261647 0.000006 0.584879 0.071724 -26.579381 0.000000 -7.539980 -0.000000 0.000004 0.000000 0.000000 0.000001 -0.000001 -0.000001 0.000001 -0.000000 0.000001 -0.000000 -0.000004 0.000003 0.000000 -0.000001 0.000000 
